<svg width="239" height="105" viewBox="0 0 239 105" fill="none" xmlns="http://www.w3.org/2000/svg">
<path d="M7.942 24.216C8.626 23.1013 9.51267 22.2273 10.602 21.594C11.7167 20.9607 12.9833 20.644 14.402 20.644V26.23H12.996C11.324 26.23 10.0573 26.6227 9.196 27.408C8.36 28.1933 7.942 29.5613 7.942 31.512V42H2.622V20.948H7.942V24.216ZM16.6173 31.398C16.6173 29.27 17.0353 27.3827 17.8713 25.736C18.7326 24.0893 19.8853 22.8227 21.3293 21.936C22.7986 21.0493 24.4326 20.606 26.2313 20.606C27.8019 20.606 29.1699 20.9227 30.3353 21.556C31.5259 22.1893 32.4759 22.9873 33.1853 23.95V20.948H38.5433V42H33.1853V38.922C32.5013 39.91 31.5513 40.7333 30.3353 41.392C29.1446 42.0253 27.7639 42.342 26.1933 42.342C24.4199 42.342 22.7986 41.886 21.3293 40.974C19.8853 40.062 18.7326 38.7827 17.8713 37.136C17.0353 35.464 16.6173 33.5513 16.6173 31.398ZM33.1853 31.474C33.1853 30.182 32.9319 29.08 32.4253 28.168C31.9186 27.2307 31.2346 26.5213 30.3733 26.04C29.5119 25.5333 28.5873 25.28 27.5993 25.28C26.6113 25.28 25.6993 25.5207 24.8633 26.002C24.0273 26.4833 23.3433 27.1927 22.8113 28.13C22.3046 29.042 22.0513 30.1313 22.0513 31.398C22.0513 32.6647 22.3046 33.7793 22.8113 34.742C23.3433 35.6793 24.0273 36.4013 24.8633 36.908C25.7246 37.4147 26.6366 37.668 27.5993 37.668C28.5873 37.668 29.5119 37.4273 30.3733 36.946C31.2346 36.4393 31.9186 35.73 32.4253 34.818C32.9319 33.8807 33.1853 32.766 33.1853 31.474ZM42.3712 31.398C42.3712 29.27 42.7892 27.3827 43.6252 25.736C44.4865 24.0893 45.6519 22.8227 47.1212 21.936C48.5905 21.0493 50.2245 20.606 52.0232 20.606C53.3912 20.606 54.6959 20.91 55.9372 21.518C57.1785 22.1007 58.1665 22.886 58.9012 23.874V13.88H64.2972V42H58.9012V38.884C58.2425 39.9227 57.3179 40.7587 56.1272 41.392C54.9365 42.0253 53.5559 42.342 51.9852 42.342C50.2119 42.342 48.5905 41.886 47.1212 40.974C45.6519 40.062 44.4865 38.7827 43.6252 37.136C42.7892 35.464 42.3712 33.5513 42.3712 31.398ZM58.9392 31.474C58.9392 30.182 58.6859 29.08 58.1792 28.168C57.6725 27.2307 56.9885 26.5213 56.1272 26.04C55.2659 25.5333 54.3412 25.28 53.3532 25.28C52.3652 25.28 51.4532 25.5207 50.6172 26.002C49.7812 26.4833 49.0972 27.1927 48.5652 28.13C48.0585 29.042 47.8052 30.1313 47.8052 31.398C47.8052 32.6647 48.0585 33.7793 48.5652 34.742C49.0972 35.6793 49.7812 36.4013 50.6172 36.908C51.4785 37.4147 52.3905 37.668 53.3532 37.668C54.3412 37.668 55.2659 37.4273 56.1272 36.946C56.9885 36.4393 57.6725 35.73 58.1792 34.818C58.6859 33.8807 58.9392 32.766 58.9392 31.474ZM74.8131 15.476V42H69.4931V15.476H74.8131ZM91.7353 20.644C94.2433 20.644 96.2699 21.442 97.8153 23.038C99.3606 24.6087 100.133 26.8127 100.133 29.65V42H94.8133V30.372C94.8133 28.7 94.3953 27.4207 93.5593 26.534C92.7233 25.622 91.5833 25.166 90.1393 25.166C88.6699 25.166 87.5046 25.622 86.6433 26.534C85.8073 27.4207 85.3893 28.7 85.3893 30.372V42H80.0693V20.948H85.3893V23.57C86.0986 22.658 86.9979 21.9487 88.0873 21.442C89.2019 20.91 90.4179 20.644 91.7353 20.644ZM113.248 42.342C111.526 42.342 109.98 42.038 108.612 41.43C107.244 40.7967 106.155 39.948 105.344 38.884C104.559 37.82 104.128 36.642 104.052 35.35H109.41C109.512 36.1607 109.904 36.832 110.588 37.364C111.298 37.896 112.172 38.162 113.21 38.162C114.224 38.162 115.009 37.9593 115.566 37.554C116.149 37.1487 116.44 36.6293 116.44 35.996C116.44 35.312 116.086 34.8053 115.376 34.476C114.692 34.1213 113.59 33.7413 112.07 33.336C110.5 32.956 109.208 32.5633 108.194 32.158C107.206 31.7527 106.345 31.132 105.61 30.296C104.901 29.46 104.546 28.3327 104.546 26.914C104.546 25.7487 104.876 24.6847 105.534 23.722C106.218 22.7593 107.181 21.9993 108.422 21.442C109.689 20.8847 111.171 20.606 112.868 20.606C115.376 20.606 117.378 21.2393 118.872 22.506C120.367 23.7473 121.19 25.432 121.342 27.56H116.25C116.174 26.724 115.82 26.0653 115.186 25.584C114.578 25.0773 113.755 24.824 112.716 24.824C111.754 24.824 111.006 25.0013 110.474 25.356C109.968 25.7107 109.714 26.2047 109.714 26.838C109.714 27.5473 110.069 28.092 110.778 28.472C111.488 28.8267 112.59 29.194 114.084 29.574C115.604 29.954 116.858 30.3467 117.846 30.752C118.834 31.1573 119.683 31.7907 120.392 32.652C121.127 33.488 121.507 34.6027 121.532 35.996C121.532 37.212 121.19 38.3013 120.506 39.264C119.848 40.2267 118.885 40.9867 117.618 41.544C116.377 42.076 114.92 42.342 113.248 42.342ZM128.597 18.44C127.66 18.44 126.875 18.1487 126.241 17.566C125.633 16.958 125.329 16.2107 125.329 15.324C125.329 14.4373 125.633 13.7027 126.241 13.12C126.875 12.512 127.66 12.208 128.597 12.208C129.535 12.208 130.307 12.512 130.915 13.12C131.549 13.7027 131.865 14.4373 131.865 15.324C131.865 16.2107 131.549 16.958 130.915 17.566C130.307 18.1487 129.535 18.44 128.597 18.44ZM131.219 20.948V42H125.899V20.948H131.219ZM144.722 20.606C146.292 20.606 147.673 20.9227 148.864 21.556C150.054 22.164 150.992 22.962 151.676 23.95V20.948H157.034V42.152C157.034 44.1027 156.641 45.838 155.856 47.358C155.07 48.9033 153.892 50.1193 152.322 51.006C150.751 51.918 148.851 52.374 146.622 52.374C143.632 52.374 141.175 51.6773 139.25 50.284C137.35 48.8907 136.273 46.9907 136.02 44.584H141.302C141.58 45.5467 142.176 46.3067 143.088 46.864C144.025 47.4467 145.152 47.738 146.47 47.738C148.015 47.738 149.269 47.2693 150.232 46.332C151.194 45.42 151.676 44.0267 151.676 42.152V38.884C150.992 39.872 150.042 40.6953 148.826 41.354C147.635 42.0127 146.267 42.342 144.722 42.342C142.948 42.342 141.327 41.886 139.858 40.974C138.388 40.062 137.223 38.7827 136.362 37.136C135.526 35.464 135.108 33.5513 135.108 31.398C135.108 29.27 135.526 27.3827 136.362 25.736C137.223 24.0893 138.376 22.8227 139.82 21.936C141.289 21.0493 142.923 20.606 144.722 20.606ZM151.676 31.474C151.676 30.182 151.422 29.08 150.916 28.168C150.409 27.2307 149.725 26.5213 148.864 26.04C148.002 25.5333 147.078 25.28 146.09 25.28C145.102 25.28 144.19 25.5207 143.354 26.002C142.518 26.4833 141.834 27.1927 141.302 28.13C140.795 29.042 140.542 30.1313 140.542 31.398C140.542 32.6647 140.795 33.7793 141.302 34.742C141.834 35.6793 142.518 36.4013 143.354 36.908C144.215 37.4147 145.127 37.668 146.09 37.668C147.078 37.668 148.002 37.4273 148.864 36.946C149.725 36.4393 150.409 35.73 150.916 34.818C151.422 33.8807 151.676 32.766 151.676 31.474ZM174.085 20.644C175.681 20.644 177.1 20.9987 178.341 21.708C179.583 22.392 180.545 23.418 181.229 24.786C181.939 26.1287 182.293 27.75 182.293 29.65V42H176.973V30.372C176.973 28.7 176.555 27.4207 175.719 26.534C174.883 25.622 173.743 25.166 172.299 25.166C170.83 25.166 169.665 25.622 168.803 26.534C167.967 27.4207 167.549 28.7 167.549 30.372V42H162.229V13.88H167.549V23.57C168.233 22.658 169.145 21.9487 170.285 21.442C171.425 20.91 172.692 20.644 174.085 20.644ZM193.546 25.318V35.502C193.546 36.2113 193.711 36.7307 194.04 37.06C194.395 37.364 194.978 37.516 195.788 37.516H198.258V42H194.914C190.43 42 188.188 39.8213 188.188 35.464V25.318H185.68V20.948H188.188V15.742H193.546V20.948H198.258V25.318H193.546Z" fill="white"/>
<path d="M218.349 36.946H207.785L206.037 42H200.451L209.989 15.438H216.183L225.721 42H220.097L218.349 36.946ZM216.905 32.69L213.067 21.594L209.229 32.69H216.905ZM234.606 15.476V42H229.286V15.476H234.606Z" fill="#CF5510"/>
</svg>
